<mxfile host="app.diagrams.net" modified="2024-05-13T09:15:35.336Z" agent="Mozilla/5.0 (X11; Linux x86_64; rv:109.0) Gecko/20100101 Firefox/109.0" etag="V668W4IMu2cauyE59Csv" version="24.4.0" type="github">
  <diagram name="Page-1" id="bh2AluwOx-QHXeOynkbn">
    <mxGraphModel dx="2154" dy="1374" grid="1" gridSize="10" guides="1" tooltips="1" connect="1" arrows="1" fold="1" page="1" pageScale="1" pageWidth="850" pageHeight="1100" math="0" shadow="0">
      <root>
        <mxCell id="0" />
        <mxCell id="1" parent="0" />
        <mxCell id="Wzl3QOPX-El_EzBc4ZMY-19" style="edgeStyle=orthogonalEdgeStyle;rounded=0;orthogonalLoop=1;jettySize=auto;html=1;exitX=0.5;exitY=1;exitDx=0;exitDy=0;" edge="1" parent="1" source="Wzl3QOPX-El_EzBc4ZMY-1" target="Wzl3QOPX-El_EzBc4ZMY-20">
          <mxGeometry relative="1" as="geometry">
            <mxPoint x="410" y="590" as="targetPoint" />
          </mxGeometry>
        </mxCell>
        <mxCell id="Wzl3QOPX-El_EzBc4ZMY-1" value="&lt;div align=&quot;center&quot;&gt;Policy head&lt;/div&gt;&lt;div align=&quot;center&quot;&gt;&lt;br&gt;&lt;/div&gt;&lt;div align=&quot;center&quot;&gt;&lt;br&gt;&lt;/div&gt;&lt;div align=&quot;center&quot;&gt;&lt;br&gt;&lt;/div&gt;&lt;div align=&quot;center&quot;&gt;&lt;br&gt;&lt;/div&gt;&lt;div align=&quot;center&quot;&gt;&lt;br&gt;&lt;/div&gt;&lt;div align=&quot;center&quot;&gt;&lt;br&gt;&lt;/div&gt;&lt;div align=&quot;center&quot;&gt;&lt;br&gt;&lt;/div&gt;&lt;div align=&quot;center&quot;&gt;&lt;br&gt;&lt;/div&gt;&lt;div align=&quot;center&quot;&gt;&lt;br&gt;&lt;/div&gt;&lt;div align=&quot;center&quot;&gt;&lt;br&gt;&lt;/div&gt;&lt;div align=&quot;center&quot;&gt;&lt;br&gt;&lt;/div&gt;&lt;div align=&quot;center&quot;&gt;&lt;br&gt;&lt;/div&gt;&lt;div align=&quot;center&quot;&gt;&lt;br&gt;&lt;/div&gt;&lt;div align=&quot;center&quot;&gt;&lt;br&gt;&lt;/div&gt;&lt;div align=&quot;center&quot;&gt;&lt;br&gt;&lt;/div&gt;&lt;div&gt;&lt;br&gt;&lt;/div&gt;&lt;div&gt;&lt;br&gt;&lt;/div&gt;&lt;div&gt;&lt;br&gt;&lt;/div&gt;" style="rounded=1;whiteSpace=wrap;html=1;fillColor=#f5f5f5;strokeColor=#666666;fontColor=#333333;" vertex="1" parent="1">
          <mxGeometry x="300" y="250" width="430" height="300" as="geometry" />
        </mxCell>
        <mxCell id="Wzl3QOPX-El_EzBc4ZMY-3" value="" style="endArrow=classic;html=1;rounded=0;" edge="1" parent="1" target="Wzl3QOPX-El_EzBc4ZMY-5">
          <mxGeometry width="50" height="50" relative="1" as="geometry">
            <mxPoint x="410.16" y="200" as="sourcePoint" />
            <mxPoint x="409.66" y="250" as="targetPoint" />
          </mxGeometry>
        </mxCell>
        <mxCell id="Wzl3QOPX-El_EzBc4ZMY-4" value="Output from Residual Block" style="edgeLabel;html=1;align=center;verticalAlign=middle;resizable=0;points=[];" vertex="1" connectable="0" parent="Wzl3QOPX-El_EzBc4ZMY-3">
          <mxGeometry x="-0.069" y="-2" relative="1" as="geometry">
            <mxPoint x="2" y="-12" as="offset" />
          </mxGeometry>
        </mxCell>
        <mxCell id="Wzl3QOPX-El_EzBc4ZMY-5" value="Convolutional Block" style="rounded=0;whiteSpace=wrap;html=1;fillColor=#fff2cc;strokeColor=#d6b656;" vertex="1" parent="1">
          <mxGeometry x="330" y="290" width="160" height="30" as="geometry" />
        </mxCell>
        <mxCell id="Wzl3QOPX-El_EzBc4ZMY-6" value="" style="endArrow=classic;html=1;rounded=0;entryX=0.5;entryY=0;entryDx=0;entryDy=0;" edge="1" parent="1">
          <mxGeometry width="50" height="50" relative="1" as="geometry">
            <mxPoint x="620" y="200" as="sourcePoint" />
            <mxPoint x="619.66" y="430" as="targetPoint" />
          </mxGeometry>
        </mxCell>
        <mxCell id="Wzl3QOPX-El_EzBc4ZMY-7" value="Mask Input" style="edgeLabel;html=1;align=center;verticalAlign=middle;resizable=0;points=[];" vertex="1" connectable="0" parent="Wzl3QOPX-El_EzBc4ZMY-6">
          <mxGeometry x="-0.069" y="-2" relative="1" as="geometry">
            <mxPoint x="2" y="-77" as="offset" />
          </mxGeometry>
        </mxCell>
        <mxCell id="Wzl3QOPX-El_EzBc4ZMY-8" value="BatchNormalization" style="rounded=0;whiteSpace=wrap;html=1;fillColor=#dae8fc;strokeColor=#6c8ebf;" vertex="1" parent="1">
          <mxGeometry x="330" y="320" width="160" height="30" as="geometry" />
        </mxCell>
        <mxCell id="Wzl3QOPX-El_EzBc4ZMY-9" value="ReLU" style="rounded=0;whiteSpace=wrap;html=1;fillColor=#d5e8d4;strokeColor=#82b366;" vertex="1" parent="1">
          <mxGeometry x="330" y="350" width="160" height="30" as="geometry" />
        </mxCell>
        <mxCell id="Wzl3QOPX-El_EzBc4ZMY-10" value="&lt;div&gt;Flatten&lt;/div&gt;" style="rounded=0;whiteSpace=wrap;html=1;fillColor=#e1d5e7;strokeColor=#9673a6;" vertex="1" parent="1">
          <mxGeometry x="330" y="440" width="160" height="30" as="geometry" />
        </mxCell>
        <mxCell id="Wzl3QOPX-El_EzBc4ZMY-11" value="Convolutional Block" style="rounded=0;whiteSpace=wrap;html=1;fillColor=#fff2cc;strokeColor=#d6b656;" vertex="1" parent="1">
          <mxGeometry x="330" y="380" width="160" height="30" as="geometry" />
        </mxCell>
        <mxCell id="Wzl3QOPX-El_EzBc4ZMY-12" value="BatchNormalization" style="rounded=0;whiteSpace=wrap;html=1;fillColor=#dae8fc;strokeColor=#6c8ebf;" vertex="1" parent="1">
          <mxGeometry x="330" y="410" width="160" height="30" as="geometry" />
        </mxCell>
        <mxCell id="Wzl3QOPX-El_EzBc4ZMY-17" style="edgeStyle=orthogonalEdgeStyle;rounded=0;orthogonalLoop=1;jettySize=auto;html=1;exitX=0.5;exitY=1;exitDx=0;exitDy=0;entryX=1;entryY=0.5;entryDx=0;entryDy=0;" edge="1" parent="1" source="Wzl3QOPX-El_EzBc4ZMY-14" target="Wzl3QOPX-El_EzBc4ZMY-15">
          <mxGeometry relative="1" as="geometry" />
        </mxCell>
        <mxCell id="Wzl3QOPX-El_EzBc4ZMY-14" value="Process Mask" style="rounded=0;whiteSpace=wrap;html=1;fillColor=#f5f5f5;strokeColor=#666666;fontColor=#333333;" vertex="1" parent="1">
          <mxGeometry x="540" y="430" width="160" height="35" as="geometry" />
        </mxCell>
        <mxCell id="Wzl3QOPX-El_EzBc4ZMY-15" value="Add" style="rounded=0;whiteSpace=wrap;html=1;fillColor=#f8cecc;strokeColor=#b85450;" vertex="1" parent="1">
          <mxGeometry x="330" y="470" width="160" height="30" as="geometry" />
        </mxCell>
        <mxCell id="Wzl3QOPX-El_EzBc4ZMY-16" value="Softmax" style="rounded=0;whiteSpace=wrap;html=1;fillColor=#d5e8d4;strokeColor=#82b366;" vertex="1" parent="1">
          <mxGeometry x="330" y="500" width="160" height="30" as="geometry" />
        </mxCell>
        <mxCell id="Wzl3QOPX-El_EzBc4ZMY-20" value="Policy Output" style="text;html=1;align=center;verticalAlign=middle;whiteSpace=wrap;rounded=0;" vertex="1" parent="1">
          <mxGeometry x="455" y="590" width="120" height="30" as="geometry" />
        </mxCell>
      </root>
    </mxGraphModel>
  </diagram>
</mxfile>
